<?xml version="1.0" encoding="UTF-8" standalone="no"?>
<!-- Created with Inkscape (http://www.inkscape.org/) -->

<svg
   width="67.213898mm"
   height="44.584404mm"
   viewBox="0 0 67.213898 44.584404"
   version="1.1"
   id="svg1"
   inkscape:version="1.4 (86a8ad7, 2024-10-11)"
   inkscape:export-filename="Sampling.pdf"
   inkscape:export-xdpi="96"
   inkscape:export-ydpi="96"
   sodipodi:docname="Sampling.svg"
   xmlns:inkscape="http://www.inkscape.org/namespaces/inkscape"
   xmlns:sodipodi="http://sodipodi.sourceforge.net/DTD/sodipodi-0.dtd"
   xmlns="http://www.w3.org/2000/svg"
   xmlns:svg="http://www.w3.org/2000/svg"
   xmlns:ns2="http://www.iki.fi/pav/software/textext/">
  <sodipodi:namedview
     id="namedview1"
     pagecolor="#ffffff"
     bordercolor="#000000"
     borderopacity="0.25"
     inkscape:showpageshadow="2"
     inkscape:pageopacity="0.0"
     inkscape:pagecheckerboard="0"
     inkscape:deskcolor="#d1d1d1"
     inkscape:document-units="mm"
     showgrid="true"
     inkscape:zoom="8.3956827"
     inkscape:cx="81.351335"
     inkscape:cy="70.333768"
     inkscape:window-width="3200"
     inkscape:window-height="1771"
     inkscape:window-x="2391"
     inkscape:window-y="-9"
     inkscape:window-maximized="1"
     inkscape:current-layer="layer1">
    <inkscape:grid
       id="grid1"
       units="mm"
       originx="-12.008197"
       originy="-1.6391908"
       spacingx="0.50000001"
       spacingy="0.50000001"
       empcolor="#0099e5"
       empopacity="0.30196078"
       color="#0099e5"
       opacity="0.14901961"
       empspacing="5"
       enabled="true"
       visible="true" />
  </sodipodi:namedview>
  <defs
     id="defs1">
    <marker
       style="overflow:visible"
       id="Triangle"
       refX="0"
       refY="0"
       orient="auto-start-reverse"
       inkscape:stockid="Triangle arrow"
       markerWidth="1"
       markerHeight="1"
       viewBox="0 0 1 1"
       inkscape:isstock="true"
       inkscape:collect="always"
       preserveAspectRatio="xMidYMid">
      <path
         transform="scale(0.5)"
         style="fill:context-stroke;fill-rule:evenodd;stroke:context-stroke;stroke-width:1pt"
         d="M 5.77,0 -2.88,5 V -5 Z"
         id="path135" />
    </marker>
    <marker
       style="overflow:visible"
       id="Triangle-5"
       refX="0"
       refY="0"
       orient="auto-start-reverse"
       inkscape:stockid="Triangle arrow"
       markerWidth="1"
       markerHeight="1"
       viewBox="0 0 1 1"
       inkscape:isstock="true"
       inkscape:collect="always"
       preserveAspectRatio="xMidYMid">
      <path
         transform="scale(0.5)"
         style="fill:context-stroke;fill-rule:evenodd;stroke:context-stroke;stroke-width:1pt"
         d="M 5.77,0 -2.88,5 V -5 Z"
         id="path135-5" />
    </marker>
  </defs>
  <g
     inkscape:label="Layer 1"
     inkscape:groupmode="layer"
     id="layer1"
     transform="translate(-12.0082, -1.63919)">
    <path
       style="fill:none;stroke:#b2b2b2;stroke-width:0.270043;stroke-dasharray:0.270043, 0.810128;stroke-dashoffset:0;stroke-opacity:0.25"
       d="M 15.750003,9.9999997 H 74.999998"
       id="path4-95" />
    <path
       style="fill:none;stroke:#b2b2b2;stroke-width:0.270043;stroke-dasharray:0.270043, 0.810128;stroke-dashoffset:0;stroke-opacity:0.25"
       d="M 15.750003,12.5 H 74.999998"
       id="path4-3-2" />
    <path
       style="fill:none;stroke:#b2b2b2;stroke-width:0.270043;stroke-dasharray:0.270043, 0.810128;stroke-dashoffset:0;stroke-opacity:0.25"
       d="M 15.750003,15.000001 H 74.999996"
       id="path4-8-00" />
    <path
       style="fill:none;stroke:#b2b2b2;stroke-width:0.270043;stroke-dasharray:0.270043, 0.810128;stroke-dashoffset:0;stroke-opacity:0.25"
       d="M 15.750003,17.500001 H 74.999998"
       id="path4-3-0-3" />
    <path
       style="fill:none;stroke:#b2b2b2;stroke-width:0.270043;stroke-dasharray:0.270043, 0.810128;stroke-dashoffset:0;stroke-opacity:0.25"
       d="M 15.750003,20.000001 H 74.999998"
       id="path4-9-9" />
    <path
       style="fill:none;stroke:#b2b2b2;stroke-width:0.270043;stroke-dasharray:0.270043, 0.810128;stroke-dashoffset:0;stroke-opacity:0.25"
       d="M 15.750003,22.500001 H 74.999998"
       id="path4-3-8-1" />
    <path
       style="fill:none;stroke:#b2b2b2;stroke-width:0.270043;stroke-dasharray:0.270043, 0.810128;stroke-dashoffset:0;stroke-opacity:0.25"
       d="M 15.750003,25.000002 H 74.999998"
       id="path4-8-9-81" />
    <path
       style="fill:none;stroke:#b2b2b2;stroke-width:0.270043;stroke-dasharray:0.270043, 0.810128;stroke-dashoffset:0;stroke-opacity:0.25"
       d="M 15.750003,27.500002 H 75"
       id="path4-3-0-7-9" />
    <path
       style="fill:none;stroke:#b2b2b2;stroke-width:0.270043;stroke-dasharray:0.270043, 0.810128;stroke-dashoffset:0;stroke-opacity:0.25"
       d="M 15.750003,30 H 74.999998"
       id="path4-2-5" />
    <path
       style="fill:none;stroke:#b2b2b2;stroke-width:0.270043;stroke-dasharray:0.270043, 0.810128;stroke-dashoffset:0;stroke-opacity:0.25"
       d="M 15.750003,32.5 H 74.999998"
       id="path4-3-89-3" />
    <path
       style="fill:none;stroke:#b2b2b2;stroke-width:0.270043;stroke-dasharray:0.270043, 0.810128;stroke-dashoffset:0;stroke-opacity:0.25"
       d="M 15.750003,35.000001 H 74.999998"
       id="path4-8-0-2" />
    <path
       style="fill:none;stroke:#b2b2b2;stroke-width:0.270043;stroke-dasharray:0.270043, 0.810128;stroke-dashoffset:0;stroke-opacity:0.25"
       d="M 15.750003,37.500001 H 75"
       id="path4-3-0-78-5" />
    <path
       style="fill:none;stroke:#b2b2b2;stroke-width:0.270043;stroke-dasharray:0.270043, 0.810128;stroke-dashoffset:0;stroke-opacity:0.25"
       d="M 15.750003,40.000001 H 75"
       id="path4-9-1-2" />
    <path
       style="fill:none;stroke:#b2b2b2;stroke-width:0.270043;stroke-dasharray:0.270043, 0.810128;stroke-dashoffset:0;stroke-opacity:0.25"
       d="M 15.750003,42.500001 H 75"
       id="path4-3-8-5-5" />
    <path
       style="fill:none;stroke:#b2b2b2;stroke-width:0.2;stroke-dasharray:0.2, 0.6;stroke-dashoffset:0;stroke-opacity:0.25"
       d="M 17.5,42.499999 V 9.9999997"
       id="path4" />
    <path
       style="fill:none;stroke:#b2b2b2;stroke-width:0.2;stroke-dasharray:0.2, 0.6;stroke-dashoffset:0;stroke-opacity:0.25"
       d="M 20,42.499999 V 9.9999994"
       id="path4-3" />
    <path
       style="fill:none;stroke:#b2b2b2;stroke-width:0.2;stroke-dasharray:0.2, 0.6;stroke-dashoffset:0;stroke-opacity:0.25"
       d="M 22.500001,42.499999 V 9.9999998"
       id="path4-8" />
    <path
       style="fill:none;stroke:#b2b2b2;stroke-width:0.2;stroke-dasharray:0.2, 0.6;stroke-dashoffset:0;stroke-opacity:0.25"
       d="M 25.000001,42.499999 V 9.9999988"
       id="path4-3-0" />
    <path
       style="fill:none;stroke:#b2b2b2;stroke-width:0.2;stroke-dasharray:0.2, 0.6;stroke-dashoffset:0;stroke-opacity:0.25"
       d="M 27.500001,42.499999 V 9.9999988"
       id="path4-9" />
    <path
       style="fill:none;stroke:#b2b2b2;stroke-width:0.2;stroke-dasharray:0.2, 0.6;stroke-dashoffset:0;stroke-opacity:0.25"
       d="M 30.000001,42.499999 V 9.9999988"
       id="path4-3-8" />
    <path
       style="fill:none;stroke:#b2b2b2;stroke-width:0.2;stroke-dasharray:0.2, 0.6;stroke-dashoffset:0;stroke-opacity:0.25"
       d="M 32.500002,42.499999 V 9.9999988"
       id="path4-8-9" />
    <path
       style="fill:none;stroke:#b2b2b2;stroke-width:0.2;stroke-dasharray:0.2, 0.6;stroke-dashoffset:0;stroke-opacity:0.25"
       d="M 35.000002,42.499999 V 9.9999978"
       id="path4-3-0-7" />
    <path
       style="fill:none;stroke:#b2b2b2;stroke-width:0.2;stroke-dasharray:0.2, 0.6;stroke-dashoffset:0;stroke-opacity:0.25"
       d="M 37.5,42.499999 V 9.9999988"
       id="path4-2" />
    <path
       style="fill:none;stroke:#b2b2b2;stroke-width:0.2;stroke-dasharray:0.2, 0.6;stroke-dashoffset:0;stroke-opacity:0.25"
       d="M 40,42.499999 V 9.9999988"
       id="path4-3-89" />
    <path
       style="fill:none;stroke:#b2b2b2;stroke-width:0.2;stroke-dasharray:0.2, 0.6;stroke-dashoffset:0;stroke-opacity:0.25"
       d="M 42.500001,42.499999 V 9.9999988"
       id="path4-8-0" />
    <path
       style="fill:none;stroke:#b2b2b2;stroke-width:0.2;stroke-dasharray:0.2, 0.6;stroke-dashoffset:0;stroke-opacity:0.25"
       d="M 45.000001,42.499999 V 9.9999978"
       id="path4-3-0-78" />
    <path
       style="fill:none;stroke:#b2b2b2;stroke-width:0.2;stroke-dasharray:0.2, 0.6;stroke-dashoffset:0;stroke-opacity:0.25"
       d="M 47.500001,42.499999 V 9.9999978"
       id="path4-9-1" />
    <path
       style="fill:none;stroke:#b2b2b2;stroke-width:0.2;stroke-dasharray:0.2, 0.6;stroke-dashoffset:0;stroke-opacity:0.25"
       d="M 50.000001,42.499999 V 9.9999978"
       id="path4-3-8-5" />
    <path
       style="fill:none;stroke:#b2b2b2;stroke-width:0.2;stroke-dasharray:0.2, 0.6;stroke-dashoffset:0;stroke-opacity:0.25"
       d="M 52.500002,42.499999 V 9.9999978"
       id="path4-8-9-8" />
    <path
       style="fill:none;stroke:#b2b2b2;stroke-width:0.2;stroke-dasharray:0.2, 0.6;stroke-dashoffset:0;stroke-opacity:0.25"
       d="M 55.000002,42.499999 V 9.9999968"
       id="path4-3-0-7-6" />
    <path
       style="fill:none;stroke:#b2b2b2;stroke-width:0.2;stroke-dasharray:0.2, 0.6;stroke-dashoffset:0;stroke-opacity:0.25"
       d="m 57.5,42.500001 v -32.5"
       id="path4-25" />
    <path
       style="fill:none;stroke:#b2b2b2;stroke-width:0.2;stroke-dasharray:0.2, 0.6;stroke-dashoffset:0;stroke-opacity:0.25"
       d="m 60,42.500001 v -32.5"
       id="path4-3-86" />
    <path
       style="fill:none;stroke:#b2b2b2;stroke-width:0.2;stroke-dasharray:0.2, 0.6;stroke-dashoffset:0;stroke-opacity:0.25"
       d="m 62.500001,42.500001 v -32.5"
       id="path4-8-2" />
    <path
       style="fill:none;stroke:#b2b2b2;stroke-width:0.2;stroke-dasharray:0.2, 0.6;stroke-dashoffset:0;stroke-opacity:0.25"
       d="M 65.000001,42.500001 V 9.9999997"
       id="path4-3-0-6" />
    <path
       style="fill:none;stroke:#b2b2b2;stroke-width:0.2;stroke-dasharray:0.2, 0.6;stroke-dashoffset:0;stroke-opacity:0.25"
       d="M 67.500001,42.500001 V 9.9999997"
       id="path4-9-5" />
    <path
       style="fill:none;stroke:#b2b2b2;stroke-width:0.2;stroke-dasharray:0.2, 0.6;stroke-dashoffset:0;stroke-opacity:0.25"
       d="M 70.000001,42.500001 V 9.9999997"
       id="path4-3-8-3" />
    <path
       style="fill:none;stroke:#b2b2b2;stroke-width:0.2;stroke-dasharray:0.2, 0.6;stroke-dashoffset:0;stroke-opacity:0.25"
       d="M 72.500002,42.500001 V 9.9999997"
       id="path4-8-9-9" />
    <path
       style="fill:none;stroke:#b2b2b2;stroke-width:0.2;stroke-dasharray:0.2, 0.6;stroke-dashoffset:0;stroke-opacity:0.25"
       d="M 75.000002,42.500001 V 9.9999987"
       id="path4-3-0-7-2" />
    <path
       style="fill:#e50000;stroke:#000000;stroke-width:0.5;stroke-dasharray:none;marker-end:url(#Triangle)"
       d="M 15,42.499999 V 6.786229"
       id="path1" />
    <path
       style="fill:#e50000;stroke:#000000;stroke-width:0.501274;stroke-dasharray:none;marker-end:url(#Triangle-5)"
       d="M 15.000002,42.499999 H 75.715406"
       id="path1-3" />
    <path
       style="fill:none;stroke:#e50000;stroke-width:0.3;stroke-dasharray:none;stroke-opacity:1"
       d="m 15,42.499999 c 1,-10 2.5,-27.499999 7.5,-27.5 5.000001,-1e-6 2.500001,7.5 7.5,7.5 5.000001,0 2.500001,-7.5 7.500001,-7.5 4.999998,0 2.500001,7.5 7.499998,7.5 5.000001,0 2.500001,-7.5 7.500001,-7.5 5.000001,0 2.5,12.499999 7.500001,12.499999 5,0 2.5,-7.499999 7.500001,-7.499999 4.999998,0 2.5,-5 7.499998,-5"
       id="path2"
       sodipodi:nodetypes="csssssssc" />
    <path
       style="fill:none;stroke:#0013e5;stroke-width:0.2;stroke-dasharray:none;stroke-opacity:1"
       d="m 15,42.499999 h 2.5 v -19 H 20 v -7 h 2.5 v -1.5 H 25 v 1 h 2.5 v 5.5 H 30 v 1 h 2.500001 v -1 h 2.5 v -5.5 h 2.5 v -1 h 2.500001 v 1 h 2.499997 v 5.5 h 2.5 v 1 H 47.5 v -1 H 50 v -5.5 h 2.5 v -1 H 55 v 2 h 2.500001 v 8.5 h 2.5 v 1.999999 h 2.5 V 26.5 h 2.5 v -5.500001 h 2.500001 v -1 h 2.5 v -0.5 H 72.5 v -3.679864 l 2.5,-0.06303"
       id="path3" />
    <g
       transform="matrix(0.352778,0,0,0.352778,16.436691,11.241754)"
       ns2:version="1.11.1"
       ns2:texconverter="pdflatex"
       ns2:pdfconverter="inkscape"
       ns2:text="$f(t)$"
       ns2:preamble="C:\Users\Dave\AppData\Roaming\inkscape\extensions\textext\default_packages.tex"
       ns2:scale="1.0"
       ns2:alignment="middle center"
       ns2:inkscapeversion="1.4"
       ns2:jacobian_sqrt="0.352778"
       id="g12"
       style="stroke:none;stroke-opacity:1;stroke-width:0;stroke-dasharray:none;fill:#e50000;fill-opacity:1">
      <defs
         id="id-23bbe0aa-7629-4b9f-8387-04d2138c37d6">
        <g
           id="id-834d95e1-3111-4e0f-b082-85cf7871c9d1">
          <g
             id="id-0cdafcb8-c1b0-4269-9bb5-733781c1cfff">
            <path
               d="m 3.65625,-3.984375 h 0.859375 c 0.203125,0 0.296875,0 0.296875,-0.203125 0,-0.109375 -0.09375,-0.109375 -0.265625,-0.109375 H 3.71875 L 3.921875,-5.4375 c 0.046875,-0.203125 0.1875,-0.90625 0.25,-1.03125 0.078125,-0.1875 0.25,-0.34375 0.46875,-0.34375 0.03125,0 0.296875,0 0.484375,0.1875 -0.4375,0.03125 -0.546875,0.390625 -0.546875,0.53125 0,0.234375 0.1875,0.359375 0.375,0.359375 C 5.21875,-5.734375 5.5,-5.96875 5.5,-6.34375 c 0,-0.453125 -0.453125,-0.6875 -0.859375,-0.6875 -0.34375,0 -0.96875,0.1875 -1.265625,1.171875 -0.0625,0.203125 -0.09375,0.3125 -0.328125,1.5625 h -0.6875 c -0.203125,0 -0.3125,0 -0.3125,0.1875 0,0.125 0.09375,0.125 0.28125,0.125 h 0.65625 L 2.25,-0.046875 c -0.1875,0.96875 -0.359375,1.875 -0.875,1.875 -0.046875,0 -0.28125,0 -0.484375,-0.1875 C 1.359375,1.609375 1.453125,1.25 1.453125,1.109375 1.453125,0.875 1.265625,0.75 1.078125,0.75 0.8125,0.75 0.53125,0.984375 0.53125,1.359375 c 0,0.4375 0.4375,0.6875 0.84375,0.6875 0.546875,0 0.953125,-0.59375 1.125,-0.96875 0.328125,-0.625 0.546875,-1.828125 0.5625,-1.90625 z m 0,0"
               id="id-1133e148-1507-4722-99cb-f676dd77be2e" />
          </g>
          <g
             id="id-02551f64-083e-4fdd-b594-040ddba2e347">
            <path
               d="m 2.046875,-3.984375 h 0.9375 c 0.203125,0 0.3125,0 0.3125,-0.203125 0,-0.109375 -0.109375,-0.109375 -0.28125,-0.109375 h -0.875 C 2.5,-5.71875 2.546875,-5.90625 2.546875,-5.96875 c 0,-0.171875 -0.125,-0.265625 -0.296875,-0.265625 -0.03125,0 -0.3125,0 -0.390625,0.359375 L 1.46875,-4.296875 h -0.9375 c -0.203125,0 -0.296875,0 -0.296875,0.1875 0,0.125 0.078125,0.125 0.28125,0.125 h 0.875 C 0.671875,-1.15625 0.625,-0.984375 0.625,-0.8125 0.625,-0.265625 1,0.109375 1.546875,0.109375 2.5625,0.109375 3.125,-1.34375 3.125,-1.421875 3.125,-1.53125 3.046875,-1.53125 3.015625,-1.53125 2.921875,-1.53125 2.90625,-1.5 2.859375,-1.390625 2.4375,-0.34375 1.90625,-0.109375 1.5625,-0.109375 c -0.203125,0 -0.3125,-0.125 -0.3125,-0.453125 0,-0.25 0.03125,-0.3125 0.0625,-0.484375 z m 0,0"
               id="id-6cac2add-d90f-4d5e-920c-03490686c573" />
          </g>
          <g
             id="id-e507572d-2b3c-4654-a2fb-bf3ed1bdac44">
            <path
               d="m 3.296875,2.390625 c 0,-0.03125 0,-0.046875 -0.171875,-0.21875 C 1.890625,0.921875 1.5625,-0.96875 1.5625,-2.5 c 0,-1.734375 0.375,-3.46875 1.609375,-4.703125 0.125,-0.125 0.125,-0.140625 0.125,-0.171875 0,-0.078125 -0.03125,-0.109375 -0.09375,-0.109375 -0.109375,0 -1,0.6875 -1.59375,1.953125 -0.5,1.09375 -0.625,2.203125 -0.625,3.03125 0,0.78125 0.109375,1.984375 0.65625,3.125 C 2.25,1.84375 3.09375,2.5 3.203125,2.5 c 0.0625,0 0.09375,-0.03125 0.09375,-0.109375 z m 0,0"
               id="id-259ce0a3-9f06-4c98-9c4d-df701993f0e3" />
          </g>
          <g
             id="id-3525c11e-1061-408a-92a7-2a1833cae2c8">
            <path
               d="m 2.875,-2.5 c 0,-0.765625 -0.109375,-1.96875 -0.65625,-3.109375 -0.59375,-1.21875 -1.453125,-1.875 -1.546875,-1.875 -0.0625,0 -0.109375,0.046875 -0.109375,0.109375 0,0.03125 0,0.046875 0.1875,0.234375 0.984375,0.984375 1.546875,2.5625 1.546875,4.640625 0,1.71875 -0.359375,3.46875 -1.59375,4.71875 C 0.5625,2.34375 0.5625,2.359375 0.5625,2.390625 0.5625,2.453125 0.609375,2.5 0.671875,2.5 0.765625,2.5 1.671875,1.8125 2.25,0.546875 2.765625,-0.546875 2.875,-1.65625 2.875,-2.5 Z m 0,0"
               id="id-fc397d1c-8430-46f1-a755-b902258d445a" />
          </g>
        </g>
      </defs>
      <g
         fill="#000000"
         fill-opacity="1"
         id="id-9a9bb1c6-8d66-41bb-8a31-80c97414fd67"
         transform="translate(-149.243,-127.281)"
         style="stroke:none;stroke-opacity:1;stroke-width:0;stroke-dasharray:none;fill:#e50000;fill-opacity:1">
        <g
           transform="translate(148.712,134.765)"
           id="g8"
           style="stroke:none;stroke-opacity:1;stroke-width:0;stroke-dasharray:none;fill:#e50000;fill-opacity:1">
          <path
             d="m 3.65625,-3.984375 h 0.859375 c 0.203125,0 0.296875,0 0.296875,-0.203125 0,-0.109375 -0.09375,-0.109375 -0.265625,-0.109375 H 3.71875 L 3.921875,-5.4375 c 0.046875,-0.203125 0.1875,-0.90625 0.25,-1.03125 0.078125,-0.1875 0.25,-0.34375 0.46875,-0.34375 0.03125,0 0.296875,0 0.484375,0.1875 -0.4375,0.03125 -0.546875,0.390625 -0.546875,0.53125 0,0.234375 0.1875,0.359375 0.375,0.359375 C 5.21875,-5.734375 5.5,-5.96875 5.5,-6.34375 c 0,-0.453125 -0.453125,-0.6875 -0.859375,-0.6875 -0.34375,0 -0.96875,0.1875 -1.265625,1.171875 -0.0625,0.203125 -0.09375,0.3125 -0.328125,1.5625 h -0.6875 c -0.203125,0 -0.3125,0 -0.3125,0.1875 0,0.125 0.09375,0.125 0.28125,0.125 h 0.65625 L 2.25,-0.046875 c -0.1875,0.96875 -0.359375,1.875 -0.875,1.875 -0.046875,0 -0.28125,0 -0.484375,-0.1875 C 1.359375,1.609375 1.453125,1.25 1.453125,1.109375 1.453125,0.875 1.265625,0.75 1.078125,0.75 0.8125,0.75 0.53125,0.984375 0.53125,1.359375 c 0,0.4375 0.4375,0.6875 0.84375,0.6875 0.546875,0 0.953125,-0.59375 1.125,-0.96875 0.328125,-0.625 0.546875,-1.828125 0.5625,-1.90625 z m 0,0"
             id="id-8c7b8181-5b6b-42c9-95d0-8d846d7d1588"
             style="stroke:none;stroke-opacity:1;stroke-width:0;stroke-dasharray:none;fill:#e50000;fill-opacity:1" />
        </g>
      </g>
      <g
         fill="#000000"
         fill-opacity="1"
         id="id-389354b6-f63b-481f-bccb-4d651165ad44"
         transform="translate(-149.243,-127.281)"
         style="stroke:none;stroke-opacity:1;stroke-width:0;stroke-dasharray:none;fill:#e50000;fill-opacity:1">
        <g
           transform="translate(154.666,134.765)"
           id="g9"
           style="stroke:none;stroke-opacity:1;stroke-width:0;stroke-dasharray:none;fill:#e50000;fill-opacity:1">
          <path
             d="m 3.296875,2.390625 c 0,-0.03125 0,-0.046875 -0.171875,-0.21875 C 1.890625,0.921875 1.5625,-0.96875 1.5625,-2.5 c 0,-1.734375 0.375,-3.46875 1.609375,-4.703125 0.125,-0.125 0.125,-0.140625 0.125,-0.171875 0,-0.078125 -0.03125,-0.109375 -0.09375,-0.109375 -0.109375,0 -1,0.6875 -1.59375,1.953125 -0.5,1.09375 -0.625,2.203125 -0.625,3.03125 0,0.78125 0.109375,1.984375 0.65625,3.125 C 2.25,1.84375 3.09375,2.5 3.203125,2.5 c 0.0625,0 0.09375,-0.03125 0.09375,-0.109375 z m 0,0"
             id="id-f94e7b26-85ae-40a1-a4ad-c6fce192dfb3"
             style="stroke:none;stroke-opacity:1;stroke-width:0;stroke-dasharray:none;fill:#e50000;fill-opacity:1" />
        </g>
      </g>
      <g
         fill="#000000"
         fill-opacity="1"
         id="id-1a1a4950-73b7-44f8-ae50-03a542511526"
         transform="translate(-149.243,-127.281)"
         style="stroke:none;stroke-opacity:1;stroke-width:0;stroke-dasharray:none;fill:#e50000;fill-opacity:1">
        <g
           transform="translate(158.54,134.765)"
           id="g10"
           style="stroke:none;stroke-opacity:1;stroke-width:0;stroke-dasharray:none;fill:#e50000;fill-opacity:1">
          <path
             d="m 2.046875,-3.984375 h 0.9375 c 0.203125,0 0.3125,0 0.3125,-0.203125 0,-0.109375 -0.109375,-0.109375 -0.28125,-0.109375 h -0.875 C 2.5,-5.71875 2.546875,-5.90625 2.546875,-5.96875 c 0,-0.171875 -0.125,-0.265625 -0.296875,-0.265625 -0.03125,0 -0.3125,0 -0.390625,0.359375 L 1.46875,-4.296875 h -0.9375 c -0.203125,0 -0.296875,0 -0.296875,0.1875 0,0.125 0.078125,0.125 0.28125,0.125 h 0.875 C 0.671875,-1.15625 0.625,-0.984375 0.625,-0.8125 0.625,-0.265625 1,0.109375 1.546875,0.109375 2.5625,0.109375 3.125,-1.34375 3.125,-1.421875 3.125,-1.53125 3.046875,-1.53125 3.015625,-1.53125 2.921875,-1.53125 2.90625,-1.5 2.859375,-1.390625 2.4375,-0.34375 1.90625,-0.109375 1.5625,-0.109375 c -0.203125,0 -0.3125,-0.125 -0.3125,-0.453125 0,-0.25 0.03125,-0.3125 0.0625,-0.484375 z m 0,0"
             id="id-d2204f97-0d04-48ee-8a42-e7ec205c298b"
             style="stroke:none;stroke-opacity:1;stroke-width:0;stroke-dasharray:none;fill:#e50000;fill-opacity:1" />
        </g>
      </g>
      <g
         fill="#000000"
         fill-opacity="1"
         id="id-24117ad1-b0a6-4a38-a22f-6d57720435f5"
         transform="translate(-149.243,-127.281)"
         style="stroke:none;stroke-opacity:1;stroke-width:0;stroke-dasharray:none;fill:#e50000;fill-opacity:1">
        <g
           transform="translate(162.138,134.765)"
           id="g11"
           style="stroke:none;stroke-opacity:1;stroke-width:0;stroke-dasharray:none;fill:#e50000;fill-opacity:1">
          <path
             d="m 2.875,-2.5 c 0,-0.765625 -0.109375,-1.96875 -0.65625,-3.109375 -0.59375,-1.21875 -1.453125,-1.875 -1.546875,-1.875 -0.0625,0 -0.109375,0.046875 -0.109375,0.109375 0,0.03125 0,0.046875 0.1875,0.234375 0.984375,0.984375 1.546875,2.5625 1.546875,4.640625 0,1.71875 -0.359375,3.46875 -1.59375,4.71875 C 0.5625,2.34375 0.5625,2.359375 0.5625,2.390625 0.5625,2.453125 0.609375,2.5 0.671875,2.5 0.765625,2.5 1.671875,1.8125 2.25,0.546875 2.765625,-0.546875 2.875,-1.65625 2.875,-2.5 Z m 0,0"
             id="id-035517de-e0c3-453d-991c-72c5a46c9804"
             style="stroke:none;stroke-opacity:1;stroke-width:0;stroke-dasharray:none;fill:#e50000;fill-opacity:1" />
        </g>
      </g>
    </g>
    <g
       transform="matrix(0.352778,0,0,0.352778,78.141579,40.999218)"
       ns2:version="1.11.1"
       ns2:texconverter="pdflatex"
       ns2:pdfconverter="inkscape"
       ns2:text="$t$"
       ns2:preamble="C:\Users\Dave\AppData\Roaming\inkscape\extensions\textext\default_packages.tex"
       ns2:scale="1.0"
       ns2:alignment="middle center"
       ns2:inkscapeversion="1.4"
       ns2:jacobian_sqrt="0.352778"
       id="g14">
      <defs
         id="id-e4ea3c35-d9d4-4d09-9b5d-5d7fcbe4d170">
        <g
           id="id-2bd193ec-12cd-4c12-9883-50c7e8b10bbe">
          <g
             id="id-daa2ff4d-d2b0-46f3-ab82-ce6193576f87">
            <path
               d="m 2.046875,-3.984375 h 0.9375 c 0.203125,0 0.3125,0 0.3125,-0.203125 0,-0.109375 -0.109375,-0.109375 -0.28125,-0.109375 h -0.875 C 2.5,-5.71875 2.546875,-5.90625 2.546875,-5.96875 c 0,-0.171875 -0.125,-0.265625 -0.296875,-0.265625 -0.03125,0 -0.3125,0 -0.390625,0.359375 L 1.46875,-4.296875 h -0.9375 c -0.203125,0 -0.296875,0 -0.296875,0.1875 0,0.125 0.078125,0.125 0.28125,0.125 h 0.875 C 0.671875,-1.15625 0.625,-0.984375 0.625,-0.8125 0.625,-0.265625 1,0.109375 1.546875,0.109375 2.5625,0.109375 3.125,-1.34375 3.125,-1.421875 3.125,-1.53125 3.046875,-1.53125 3.015625,-1.53125 2.921875,-1.53125 2.90625,-1.5 2.859375,-1.390625 2.4375,-0.34375 1.90625,-0.109375 1.5625,-0.109375 c -0.203125,0 -0.3125,-0.125 -0.3125,-0.453125 0,-0.25 0.03125,-0.3125 0.0625,-0.484375 z m 0,0"
               id="id-94d8b814-e762-4561-8eab-52791019f111" />
          </g>
        </g>
      </defs>
      <g
         fill="#000000"
         fill-opacity="1"
         id="id-c2ef6925-fa3d-4385-9b0f-70f9ee59c3c7"
         transform="translate(-148.946,-128.531)">
        <g
           transform="translate(148.712,134.765)"
           id="g13">
          <path
             d="m 2.046875,-3.984375 h 0.9375 c 0.203125,0 0.3125,0 0.3125,-0.203125 0,-0.109375 -0.109375,-0.109375 -0.28125,-0.109375 h -0.875 C 2.5,-5.71875 2.546875,-5.90625 2.546875,-5.96875 c 0,-0.171875 -0.125,-0.265625 -0.296875,-0.265625 -0.03125,0 -0.3125,0 -0.390625,0.359375 L 1.46875,-4.296875 h -0.9375 c -0.203125,0 -0.296875,0 -0.296875,0.1875 0,0.125 0.078125,0.125 0.28125,0.125 h 0.875 C 0.671875,-1.15625 0.625,-0.984375 0.625,-0.8125 0.625,-0.265625 1,0.109375 1.546875,0.109375 2.5625,0.109375 3.125,-1.34375 3.125,-1.421875 3.125,-1.53125 3.046875,-1.53125 3.015625,-1.53125 2.921875,-1.53125 2.90625,-1.5 2.859375,-1.390625 2.4375,-0.34375 1.90625,-0.109375 1.5625,-0.109375 c -0.203125,0 -0.3125,-0.125 -0.3125,-0.453125 0,-0.25 0.03125,-0.3125 0.0625,-0.484375 z m 0,0"
             id="id-abb28dc3-74ed-4532-8aec-554a684d02ee" />
        </g>
      </g>
    </g>
    <path
       style="fill:none;stroke:#00ff56;stroke-width:0.2;stroke-dasharray:none;stroke-dashoffset:0;stroke-opacity:1;marker-end:url(#Triangle-5)"
       d="m 15,43.499999 h 2"
       id="path14"
       sodipodi:nodetypes="cc" />
    <g
       transform="matrix(0.246945,0,0,0.246945,15.170327,44.172347)"
       ns2:version="1.11.1"
       ns2:texconverter="pdflatex"
       ns2:pdfconverter="inkscape"
       ns2:text="$T_s$"
       ns2:preamble="C:\Users\Dave\AppData\Roaming\inkscape\extensions\textext\default_packages.tex"
       ns2:scale="0.7"
       ns2:alignment="middle center"
       ns2:inkscapeversion="1.4"
       ns2:jacobian_sqrt="0.246945"
       id="g19">
      <defs
         id="id-8a8a0808-9dbc-4497-985b-8c121aff871e">
        <g
           id="id-4a63b5c6-7acd-4dfc-9b26-9885e3eb24d2">
          <g
             id="id-99d63ff6-d062-4f0d-bdb7-f94a433ae21b">
            <path
               d="m 4.25,-6.046875 c 0.078125,-0.28125 0.109375,-0.34375 0.234375,-0.375 0.09375,-0.015625 0.421875,-0.015625 0.625,-0.015625 1.015625,0 1.453125,0.03125 1.453125,0.8125 0,0.15625 -0.03125,0.546875 -0.078125,0.796875 0,0.046875 -0.03125,0.15625 -0.03125,0.1875 0,0.0625 0.03125,0.140625 0.125,0.140625 0.109375,0 0.125,-0.078125 0.15625,-0.234375 L 7,-6.46875 C 7.015625,-6.515625 7.015625,-6.609375 7.015625,-6.640625 7.015625,-6.75 6.921875,-6.75 6.75,-6.75 H 1.21875 c -0.234375,0 -0.25,0.015625 -0.328125,0.203125 l -0.59375,1.75 c 0,0.015625 -0.0625,0.15625 -0.0625,0.1875 0,0.046875 0.0625,0.109375 0.125,0.109375 0.09375,0 0.109375,-0.0625 0.171875,-0.21875 C 1.0625,-6.265625 1.328125,-6.4375 2.796875,-6.4375 H 3.1875 c 0.28125,0 0.28125,0.03125 0.28125,0.125 0,0.046875 -0.03125,0.171875 -0.046875,0.203125 L 2.09375,-0.78125 C 2,-0.421875 1.96875,-0.3125 0.90625,-0.3125 c -0.359375,0 -0.421875,0 -0.421875,0.1875 C 0.484375,0 0.59375,0 0.65625,0 c 0.265625,0 0.546875,-0.015625 0.8125,-0.015625 0.28125,0 0.578125,-0.015625 0.859375,-0.015625 0.28125,0 0.546875,0.015625 0.828125,0.015625 C 3.4375,-0.015625 3.734375,0 4.015625,0 c 0.09375,0 0.21875,0 0.21875,-0.203125 0,-0.109375 -0.078125,-0.109375 -0.34375,-0.109375 -0.234375,0 -0.375,0 -0.625,-0.015625 -0.296875,-0.03125 -0.375,-0.0625 -0.375,-0.21875 0,-0.015625 0,-0.0625 0.046875,-0.203125 z m 0,0"
               id="id-f676b594-6258-4899-a339-ce02ba95f142" />
          </g>
          <g
             id="id-405eb86f-3026-40e6-bb66-734989eb1633">
            <path
               d="m 3,-2.625 c -0.171875,0.046875 -0.296875,0.1875 -0.296875,0.328125 0,0.171875 0.140625,0.234375 0.234375,0.234375 0.078125,0 0.34375,-0.046875 0.34375,-0.40625 0,-0.453125 -0.5,-0.609375 -0.9375,-0.609375 -1.078125,0 -1.28125,0.8125 -1.28125,1.015625 0,0.265625 0.15625,0.4375 0.25,0.515625 0.171875,0.140625 0.296875,0.171875 0.78125,0.25 0.15625,0.03125 0.59375,0.109375 0.59375,0.453125 0,0.125 -0.078125,0.390625 -0.359375,0.5625 C 2.046875,-0.125 1.703125,-0.125 1.625,-0.125 1.34375,-0.125 0.953125,-0.1875 0.78125,-0.421875 1.015625,-0.453125 1.171875,-0.625 1.171875,-0.8125 c 0,-0.171875 -0.125,-0.265625 -0.265625,-0.265625 -0.203125,0 -0.40625,0.171875 -0.40625,0.46875 0,0.421875 0.4375,0.671875 1.109375,0.671875 1.296875,0 1.53125,-0.875 1.53125,-1.140625 0,-0.640625 -0.703125,-0.765625 -0.96875,-0.8125 -0.0625,-0.015625 -0.234375,-0.046875 -0.28125,-0.0625 -0.25,-0.046875 -0.375,-0.1875 -0.375,-0.34375 0,-0.15625 0.125,-0.34375 0.28125,-0.453125 0.1875,-0.109375 0.421875,-0.125 0.546875,-0.125 0.140625,0 0.5,0.015625 0.65625,0.25 z m 0,0"
               id="id-9152ef50-c56c-466c-b105-e1efa31dde6b" />
          </g>
        </g>
      </defs>
      <g
         fill="#000000"
         fill-opacity="1"
         id="id-20eccbb8-e95c-42e3-9425-05cf54cf80d9"
         transform="translate(-148.946,-128.015)">
        <g
           transform="translate(148.712,134.765)"
           id="g17">
          <path
             d="m 4.25,-6.046875 c 0.078125,-0.28125 0.109375,-0.34375 0.234375,-0.375 0.09375,-0.015625 0.421875,-0.015625 0.625,-0.015625 1.015625,0 1.453125,0.03125 1.453125,0.8125 0,0.15625 -0.03125,0.546875 -0.078125,0.796875 0,0.046875 -0.03125,0.15625 -0.03125,0.1875 0,0.0625 0.03125,0.140625 0.125,0.140625 0.109375,0 0.125,-0.078125 0.15625,-0.234375 L 7,-6.46875 C 7.015625,-6.515625 7.015625,-6.609375 7.015625,-6.640625 7.015625,-6.75 6.921875,-6.75 6.75,-6.75 H 1.21875 c -0.234375,0 -0.25,0.015625 -0.328125,0.203125 l -0.59375,1.75 c 0,0.015625 -0.0625,0.15625 -0.0625,0.1875 0,0.046875 0.0625,0.109375 0.125,0.109375 0.09375,0 0.109375,-0.0625 0.171875,-0.21875 C 1.0625,-6.265625 1.328125,-6.4375 2.796875,-6.4375 H 3.1875 c 0.28125,0 0.28125,0.03125 0.28125,0.125 0,0.046875 -0.03125,0.171875 -0.046875,0.203125 L 2.09375,-0.78125 C 2,-0.421875 1.96875,-0.3125 0.90625,-0.3125 c -0.359375,0 -0.421875,0 -0.421875,0.1875 C 0.484375,0 0.59375,0 0.65625,0 c 0.265625,0 0.546875,-0.015625 0.8125,-0.015625 0.28125,0 0.578125,-0.015625 0.859375,-0.015625 0.28125,0 0.546875,0.015625 0.828125,0.015625 C 3.4375,-0.015625 3.734375,0 4.015625,0 c 0.09375,0 0.21875,0 0.21875,-0.203125 0,-0.109375 -0.078125,-0.109375 -0.34375,-0.109375 -0.234375,0 -0.375,0 -0.625,-0.015625 -0.296875,-0.03125 -0.375,-0.0625 -0.375,-0.21875 0,-0.015625 0,-0.0625 0.046875,-0.203125 z m 0,0"
             id="id-7934527e-f2a7-4e6e-91df-f2e04e2a1f06" />
        </g>
      </g>
      <g
         fill="#000000"
         fill-opacity="1"
         id="id-fba1f1e5-c751-4bff-b452-ea8516c5d004"
         transform="translate(-148.946,-128.015)">
        <g
           transform="translate(154.534,136.259)"
           id="g18">
          <path
             d="m 3,-2.625 c -0.171875,0.046875 -0.296875,0.1875 -0.296875,0.328125 0,0.171875 0.140625,0.234375 0.234375,0.234375 0.078125,0 0.34375,-0.046875 0.34375,-0.40625 0,-0.453125 -0.5,-0.609375 -0.9375,-0.609375 -1.078125,0 -1.28125,0.8125 -1.28125,1.015625 0,0.265625 0.15625,0.4375 0.25,0.515625 0.171875,0.140625 0.296875,0.171875 0.78125,0.25 0.15625,0.03125 0.59375,0.109375 0.59375,0.453125 0,0.125 -0.078125,0.390625 -0.359375,0.5625 C 2.046875,-0.125 1.703125,-0.125 1.625,-0.125 1.34375,-0.125 0.953125,-0.1875 0.78125,-0.421875 1.015625,-0.453125 1.171875,-0.625 1.171875,-0.8125 c 0,-0.171875 -0.125,-0.265625 -0.265625,-0.265625 -0.203125,0 -0.40625,0.171875 -0.40625,0.46875 0,0.421875 0.4375,0.671875 1.109375,0.671875 1.296875,0 1.53125,-0.875 1.53125,-1.140625 0,-0.640625 -0.703125,-0.765625 -0.96875,-0.8125 -0.0625,-0.015625 -0.234375,-0.046875 -0.28125,-0.0625 -0.25,-0.046875 -0.375,-0.1875 -0.375,-0.34375 0,-0.15625 0.125,-0.34375 0.28125,-0.453125 0.1875,-0.109375 0.421875,-0.125 0.546875,-0.125 0.140625,0 0.5,0.015625 0.65625,0.25 z m 0,0"
             id="id-ff86972e-f3ae-48d8-b67e-4756f165af6e" />
        </g>
      </g>
    </g>
    <g
       transform="matrix(0.352778,0,0,0.352778,33.173476,21.738997)"
       ns2:version="1.11.1"
       ns2:texconverter="pdflatex"
       ns2:pdfconverter="inkscape"
       ns2:text="$f[k]$"
       ns2:preamble="C:\Users\Dave\AppData\Roaming\inkscape\extensions\textext\default_packages.tex"
       ns2:scale="1.0"
       ns2:alignment="middle center"
       ns2:inkscapeversion="1.4"
       ns2:jacobian_sqrt="0.352778"
       id="g16"
       style="fill:#0013e5;fill-opacity:1">
      <defs
         id="id-ded67b33-ac50-49a2-8696-f2bb8317a78d">
        <g
           id="id-559d8b71-6c5d-4500-b031-ebf8e7d4071e">
          <g
             id="id-0794eef6-c770-428e-b620-b46fb653f7be">
            <path
               d="m 3.65625,-3.984375 h 0.859375 c 0.203125,0 0.296875,0 0.296875,-0.203125 0,-0.109375 -0.09375,-0.109375 -0.265625,-0.109375 H 3.71875 L 3.921875,-5.4375 c 0.046875,-0.203125 0.1875,-0.90625 0.25,-1.03125 0.078125,-0.1875 0.25,-0.34375 0.46875,-0.34375 0.03125,0 0.296875,0 0.484375,0.1875 -0.4375,0.03125 -0.546875,0.390625 -0.546875,0.53125 0,0.234375 0.1875,0.359375 0.375,0.359375 C 5.21875,-5.734375 5.5,-5.96875 5.5,-6.34375 c 0,-0.453125 -0.453125,-0.6875 -0.859375,-0.6875 -0.34375,0 -0.96875,0.1875 -1.265625,1.171875 -0.0625,0.203125 -0.09375,0.3125 -0.328125,1.5625 h -0.6875 c -0.203125,0 -0.3125,0 -0.3125,0.1875 0,0.125 0.09375,0.125 0.28125,0.125 h 0.65625 L 2.25,-0.046875 c -0.1875,0.96875 -0.359375,1.875 -0.875,1.875 -0.046875,0 -0.28125,0 -0.484375,-0.1875 C 1.359375,1.609375 1.453125,1.25 1.453125,1.109375 1.453125,0.875 1.265625,0.75 1.078125,0.75 0.8125,0.75 0.53125,0.984375 0.53125,1.359375 c 0,0.4375 0.4375,0.6875 0.84375,0.6875 0.546875,0 0.953125,-0.59375 1.125,-0.96875 0.328125,-0.625 0.546875,-1.828125 0.5625,-1.90625 z m 0,0"
               id="id-8ecb217b-46bc-4334-8284-5c1f965863e6" />
          </g>
          <g
             id="id-9fd2f49a-13fd-416c-82bb-7a0b8807754e">
            <path
               d="m 2.859375,-6.8125 c 0,0 0,-0.109375 -0.125,-0.109375 -0.234375,0 -0.953125,0.078125 -1.21875,0.109375 -0.078125,0 -0.1875,0.015625 -0.1875,0.1875 0,0.125 0.09375,0.125 0.234375,0.125 0.484375,0 0.5,0.0625 0.5,0.171875 L 2.03125,-6.125 0.59375,-0.390625 c -0.046875,0.140625 -0.046875,0.15625 -0.046875,0.21875 0,0.234375 0.203125,0.28125 0.296875,0.28125 0.125,0 0.265625,-0.09375 0.328125,-0.203125 0.046875,-0.09375 0.5,-1.9375 0.5625,-2.1875 0.34375,0.03125 1.15625,0.1875 1.15625,0.84375 0,0.078125 0,0.109375 -0.03125,0.21875 -0.015625,0.109375 -0.03125,0.234375 -0.03125,0.34375 0,0.578125 0.390625,0.984375 0.90625,0.984375 0.296875,0 0.578125,-0.15625 0.796875,-0.53125 0.25,-0.4375 0.359375,-0.984375 0.359375,-1 0,-0.109375 -0.09375,-0.109375 -0.125,-0.109375 -0.09375,0 -0.109375,0.046875 -0.140625,0.1875 -0.203125,0.71875 -0.421875,1.234375 -0.859375,1.234375 -0.203125,0 -0.328125,-0.109375 -0.328125,-0.46875 0,-0.171875 0.046875,-0.40625 0.078125,-0.5625 C 3.5625,-1.3125 3.5625,-1.34375 3.5625,-1.453125 3.5625,-2.09375 2.9375,-2.375 2.078125,-2.5 2.390625,-2.671875 2.71875,-2.984375 2.9375,-3.234375 3.421875,-3.765625 3.875,-4.1875 4.359375,-4.1875 c 0.0625,0 0.078125,0 0.09375,0.015625 0.125,0.015625 0.125,0.015625 0.21875,0.078125 0.015625,0 0.015625,0.015625 0.03125,0.03125 -0.46875,0.03125 -0.5625,0.421875 -0.5625,0.546875 0,0.15625 0.109375,0.34375 0.375,0.34375 0.265625,0 0.546875,-0.21875 0.546875,-0.609375 0,-0.296875 -0.234375,-0.625 -0.671875,-0.625 -0.28125,0 -0.734375,0.078125 -1.453125,0.875 -0.34375,0.375 -0.734375,0.78125 -1.109375,0.921875 z m 0,0"
               id="id-82ef53f8-94fc-454e-8ebc-ebd1a7296918" />
          </g>
          <g
             id="id-6fb21ef0-6c99-4d70-a33d-1963de62a117">
            <path
               d="M 2.546875,2.5 V 2.09375 h -0.96875 v -9.171875 h 0.96875 v -0.40625 h -1.375 V 2.5 Z m 0,0"
               id="id-c2197539-1a49-46db-9255-038692f165a4" />
          </g>
          <g
             id="id-4104e63a-61c6-4a4c-bf9a-372f1e526221">
            <path
               d="M 1.578125,-7.484375 H 0.21875 v 0.40625 H 1.1875 V 2.09375 H 0.21875 V 2.5 h 1.359375 z m 0,0"
               id="id-bdb15085-2fbf-4833-bcac-02be132ae0e4" />
          </g>
        </g>
      </defs>
      <g
         fill="#000000"
         fill-opacity="1"
         id="id-26a565fb-74e8-4e2d-82bc-0fbd52589ed5"
         transform="translate(-149.243,-127.281)"
         style="fill:#0013e5;fill-opacity:1">
        <g
           transform="translate(148.712,134.765)"
           id="g5"
           style="fill:#0013e5;fill-opacity:1">
          <path
             d="m 3.65625,-3.984375 h 0.859375 c 0.203125,0 0.296875,0 0.296875,-0.203125 0,-0.109375 -0.09375,-0.109375 -0.265625,-0.109375 H 3.71875 L 3.921875,-5.4375 c 0.046875,-0.203125 0.1875,-0.90625 0.25,-1.03125 0.078125,-0.1875 0.25,-0.34375 0.46875,-0.34375 0.03125,0 0.296875,0 0.484375,0.1875 -0.4375,0.03125 -0.546875,0.390625 -0.546875,0.53125 0,0.234375 0.1875,0.359375 0.375,0.359375 C 5.21875,-5.734375 5.5,-5.96875 5.5,-6.34375 c 0,-0.453125 -0.453125,-0.6875 -0.859375,-0.6875 -0.34375,0 -0.96875,0.1875 -1.265625,1.171875 -0.0625,0.203125 -0.09375,0.3125 -0.328125,1.5625 h -0.6875 c -0.203125,0 -0.3125,0 -0.3125,0.1875 0,0.125 0.09375,0.125 0.28125,0.125 h 0.65625 L 2.25,-0.046875 c -0.1875,0.96875 -0.359375,1.875 -0.875,1.875 -0.046875,0 -0.28125,0 -0.484375,-0.1875 C 1.359375,1.609375 1.453125,1.25 1.453125,1.109375 1.453125,0.875 1.265625,0.75 1.078125,0.75 0.8125,0.75 0.53125,0.984375 0.53125,1.359375 c 0,0.4375 0.4375,0.6875 0.84375,0.6875 0.546875,0 0.953125,-0.59375 1.125,-0.96875 0.328125,-0.625 0.546875,-1.828125 0.5625,-1.90625 z m 0,0"
             id="id-d993764f-dacd-43bd-a51d-4ff494fa5579"
             style="fill:#0013e5;fill-opacity:1" />
        </g>
      </g>
      <g
         fill="#000000"
         fill-opacity="1"
         id="id-4c9df6d9-b12b-4971-9f9d-a6909669c384"
         transform="translate(-149.243,-127.281)"
         style="fill:#0013e5;fill-opacity:1">
        <g
           transform="translate(154.666,134.765)"
           id="g6"
           style="fill:#0013e5;fill-opacity:1">
          <path
             d="M 2.546875,2.5 V 2.09375 h -0.96875 v -9.171875 h 0.96875 v -0.40625 h -1.375 V 2.5 Z m 0,0"
             id="id-9f4069a9-609a-4e13-877b-2d1d5e956eb0"
             style="fill:#0013e5;fill-opacity:1" />
        </g>
      </g>
      <g
         fill="#000000"
         fill-opacity="1"
         id="id-6b727315-1d90-4329-9f16-bf3df8e69543"
         transform="translate(-149.243,-127.281)"
         style="fill:#0013e5;fill-opacity:1">
        <g
           transform="translate(157.433,134.765)"
           id="g7"
           style="fill:#0013e5;fill-opacity:1">
          <path
             d="m 2.859375,-6.8125 c 0,0 0,-0.109375 -0.125,-0.109375 -0.234375,0 -0.953125,0.078125 -1.21875,0.109375 -0.078125,0 -0.1875,0.015625 -0.1875,0.1875 0,0.125 0.09375,0.125 0.234375,0.125 0.484375,0 0.5,0.0625 0.5,0.171875 L 2.03125,-6.125 0.59375,-0.390625 c -0.046875,0.140625 -0.046875,0.15625 -0.046875,0.21875 0,0.234375 0.203125,0.28125 0.296875,0.28125 0.125,0 0.265625,-0.09375 0.328125,-0.203125 0.046875,-0.09375 0.5,-1.9375 0.5625,-2.1875 0.34375,0.03125 1.15625,0.1875 1.15625,0.84375 0,0.078125 0,0.109375 -0.03125,0.21875 -0.015625,0.109375 -0.03125,0.234375 -0.03125,0.34375 0,0.578125 0.390625,0.984375 0.90625,0.984375 0.296875,0 0.578125,-0.15625 0.796875,-0.53125 0.25,-0.4375 0.359375,-0.984375 0.359375,-1 0,-0.109375 -0.09375,-0.109375 -0.125,-0.109375 -0.09375,0 -0.109375,0.046875 -0.140625,0.1875 -0.203125,0.71875 -0.421875,1.234375 -0.859375,1.234375 -0.203125,0 -0.328125,-0.109375 -0.328125,-0.46875 0,-0.171875 0.046875,-0.40625 0.078125,-0.5625 C 3.5625,-1.3125 3.5625,-1.34375 3.5625,-1.453125 3.5625,-2.09375 2.9375,-2.375 2.078125,-2.5 2.390625,-2.671875 2.71875,-2.984375 2.9375,-3.234375 3.421875,-3.765625 3.875,-4.1875 4.359375,-4.1875 c 0.0625,0 0.078125,0 0.09375,0.015625 0.125,0.015625 0.125,0.015625 0.21875,0.078125 0.015625,0 0.015625,0.015625 0.03125,0.03125 -0.46875,0.03125 -0.5625,0.421875 -0.5625,0.546875 0,0.15625 0.109375,0.34375 0.375,0.34375 0.265625,0 0.546875,-0.21875 0.546875,-0.609375 0,-0.296875 -0.234375,-0.625 -0.671875,-0.625 -0.28125,0 -0.734375,0.078125 -1.453125,0.875 -0.34375,0.375 -0.734375,0.78125 -1.109375,0.921875 z m 0,0"
             id="id-0cca3827-4a09-4ece-8458-5a304adb3a71"
             style="fill:#0013e5;fill-opacity:1" />
        </g>
      </g>
      <g
         fill="#000000"
         fill-opacity="1"
         id="id-a58e404e-cdb8-4c03-b430-8205ea4a8933"
         transform="translate(-149.243,-127.281)"
         style="fill:#0013e5;fill-opacity:1">
        <g
           transform="translate(162.929,134.765)"
           id="g15"
           style="fill:#0013e5;fill-opacity:1">
          <path
             d="M 1.578125,-7.484375 H 0.21875 v 0.40625 H 1.1875 V 2.09375 H 0.21875 V 2.5 h 1.359375 z m 0,0"
             id="id-9605bbe8-c8db-42b2-8463-5b1726f68fc5"
             style="fill:#0013e5;fill-opacity:1" />
        </g>
      </g>
    </g>
  </g>
</svg>
